<svg xmlns="http://www.w3.org/2000/svg" viewBox="0 0 242.39 113.95"><defs><style>.cls-1{fill:#fff;}.cls-2{fill:#5ca267;}.cls-3{opacity:0.5;}</style></defs><title>logo</title><g id="Слой_2" data-name="Слой 2"><g id="Слой_1-2" data-name="Слой 1"><path class="cls-1" d="M20.71,47.16q-9.87,0-15.29-6.09T0,23.87Q0,12.46,5.5,6.23T21.17,0a31.14,31.14,0,0,1,6.56.71,21.62,21.62,0,0,1,5.15,1.66L30.76,8.22a33.12,33.12,0,0,0-5-1.52A22.32,22.32,0,0,0,21,6.1Q7.14,6.1,7.14,23.79q0,8.38,3.38,12.86t10,4.49a30.67,30.67,0,0,0,11.66-2.45v6.1A24.83,24.83,0,0,1,20.71,47.16Z"/><path class="cls-1" d="M75.23,46.33l-1.37-6.48h-.33a19.12,19.12,0,0,1-6.79,5.79,20.65,20.65,0,0,1-8.44,1.52q-6.76,0-10.61-3.49t-3.84-9.92q0-13.79,22-14.45l7.72-.25V16.23c0-3.57-.76-6.21-2.3-7.91s-4-2.55-7.37-2.55q-5.69,0-12.87,3.49L49,4a32.56,32.56,0,0,1,7.36-2.86,32.08,32.08,0,0,1,8-1q8.13,0,12.06,3.61t3.92,11.59V46.33ZM59.67,41.47q6.44,0,10.1-3.53t3.68-9.88V24l-6.89.29q-8.22.3-11.85,2.55a7.7,7.7,0,0,0-3.64,7,7.1,7.1,0,0,0,2.27,5.69A9.36,9.36,0,0,0,59.67,41.47Z"/><path class="cls-1" d="M119.54,0A27.17,27.17,0,0,1,125,.5l-1,6.39a23.76,23.76,0,0,0-5-.62,12.1,12.1,0,0,0-9.44,4.48,16.33,16.33,0,0,0-3.92,11.17V46.33H98.79V.83h5.68l.79,8.43h.33a20,20,0,0,1,6.11-6.85A13.69,13.69,0,0,1,119.54,0Z"/><path class="cls-1" d="M167.09,33.91a11.39,11.39,0,0,1-4.74,9.8q-4.72,3.45-13.28,3.45-9,0-14.11-2.87V37.9a33.49,33.49,0,0,0,7,2.61,29.28,29.28,0,0,0,7.25,1c3.59,0,6.36-.58,8.3-1.72a5.94,5.94,0,0,0,.6-9.8q-2.29-1.89-9-4.46a49.15,49.15,0,0,1-9-4.13,12.28,12.28,0,0,1-4-4A10.45,10.45,0,0,1,134.83,12a10.2,10.2,0,0,1,4.53-8.78Q143.88,0,151.77,0a36.35,36.35,0,0,1,14.36,3l-2.45,5.6a33,33,0,0,0-12.41-2.82c-3.26,0-5.73.51-7.39,1.54a4.74,4.74,0,0,0-2.49,4.23,5.08,5.08,0,0,0,.94,3.11,9,9,0,0,0,3,2.45,65.43,65.43,0,0,0,8,3.36q8.1,3,10.94,5.94A10.45,10.45,0,0,1,167.09,33.91Z"/><path class="cls-2" d="M199.61,114,234.73,8.12H188.94V.85h53.45V7.19L207.5,114Z"/><g class="cls-3"><path class="cls-1" d="M10.16,71.15a3.55,3.55,0,0,1-1.33,2.91,5.78,5.78,0,0,1-3.7,1.06,8.63,8.63,0,0,1-3.86-.82V71.62a15.18,15.18,0,0,0,2.33.86,6.87,6.87,0,0,0,1.75.26,2.49,2.49,0,0,0,1.46-.37,1.23,1.23,0,0,0,.51-1.08,1.17,1.17,0,0,0-.22-.71A2.63,2.63,0,0,0,6.44,70a17.22,17.22,0,0,0-1.77-.92A8.21,8.21,0,0,1,2.8,67.92a4.19,4.19,0,0,1-1-1.26,3.94,3.94,0,0,1,.85-4.52,5.1,5.1,0,0,1,3.39-1,7.9,7.9,0,0,1,2,.25,13.63,13.63,0,0,1,2,.71l-.93,2.24a15.1,15.1,0,0,0-1.81-.62A5.66,5.66,0,0,0,6,63.51a1.88,1.88,0,0,0-1.26.38,1.28,1.28,0,0,0-.44,1,1.22,1.22,0,0,0,.18.67,2,2,0,0,0,.56.55,16.58,16.58,0,0,0,1.84,1A7.31,7.31,0,0,1,9.45,68.9,3.58,3.58,0,0,1,10.16,71.15Z"/><path class="cls-1" d="M25.45,74.94H17.59V61.3h7.86v2.37h-5v3H25.1V69H20.48v3.52h5Z"/><path class="cls-1" d="M36.15,69.7v5.24H33.26V61.3h4a6.83,6.83,0,0,1,4.11,1,3.63,3.63,0,0,1,1.34,3.08A3.58,3.58,0,0,1,42,67.53,4.43,4.43,0,0,1,40.14,69q3.07,4.59,4,5.94H40.94L37.69,69.7Zm0-2.35h.93a3.6,3.6,0,0,0,2-.45,1.64,1.64,0,0,0,.66-1.44,1.5,1.5,0,0,0-.67-1.38A4.1,4.1,0,0,0,37,63.67h-.87Z"/><path class="cls-1" d="M58.61,61.3h2.92L56.89,74.94H53.74L49.12,61.3H52l2.57,8.12c.14.47.29,1,.44,1.67s.25,1.08.29,1.33a22.18,22.18,0,0,1,.7-3Z"/><path class="cls-1" d="M68.21,74.94V61.3H71.1V74.94Z"/><path class="cls-1" d="M85.29,63.51a3,3,0,0,0-2.53,1.23,5.77,5.77,0,0,0-.89,3.42q0,4.56,3.42,4.56A10.78,10.78,0,0,0,88.77,72v2.42a9.6,9.6,0,0,1-3.75.7,5.73,5.73,0,0,1-4.55-1.8,7.64,7.64,0,0,1-1.58-5.18,8.43,8.43,0,0,1,.78-3.73A5.62,5.62,0,0,1,81.89,62a6.58,6.58,0,0,1,3.4-.85,9.13,9.13,0,0,1,4,1l-.93,2.35a13.55,13.55,0,0,0-1.54-.64A4.56,4.56,0,0,0,85.29,63.51Z"/><path class="cls-1" d="M104.49,74.94H96.64V61.3h7.85v2.37h-5v3h4.61V69H99.53v3.52h5Z"/><path class="cls-1" d="M130.57,74.94l-1-3.25h-5l-1,3.25h-3.12l4.81-13.69h3.54l4.83,13.69Zm-1.67-5.67c-.92-2.94-1.43-4.61-1.55-5s-.19-.69-.24-.92q-.31,1.2-1.77,5.91Z"/><path class="cls-1" d="M149.79,65.55a4.19,4.19,0,0,1-1.37,3.37,5.9,5.9,0,0,1-3.92,1.17h-1.24v4.85h-2.89V61.3h4.36a5.8,5.8,0,0,1,3.77,1.07A3.89,3.89,0,0,1,149.79,65.55Zm-6.53,2.17h1a3.18,3.18,0,0,0,2-.53,1.84,1.84,0,0,0,.66-1.53,1.88,1.88,0,0,0-.55-1.5,2.56,2.56,0,0,0-1.74-.49h-1.32Z"/><path class="cls-1" d="M166.75,65.55a4.17,4.17,0,0,1-1.38,3.37,5.85,5.85,0,0,1-3.91,1.17h-1.24v4.85h-2.89V61.3h4.36a5.8,5.8,0,0,1,3.77,1.07A3.89,3.89,0,0,1,166.75,65.55Zm-6.53,2.17h.95a3.18,3.18,0,0,0,2-.53,1.84,1.84,0,0,0,.66-1.53,1.88,1.88,0,0,0-.55-1.5,2.56,2.56,0,0,0-1.74-.49h-1.32Z"/></g></g></g></svg>